<svg width="24" height="24" viewBox="0 0 24 24" fill="none" xmlns="http://www.w3.org/2000/svg"><path fill-rule="evenodd" clip-rule="evenodd" d="M.293.293a1 1 0 011.414 0l22 22a1 1 0 01-1.414 1.414l-4.468-4.466A11.089 11.089 0 0112 21c-3.38 0-6.339-1.633-8.855-4.316a20.485 20.485 0 01-2.25-2.892l-.239-.377c-.147-.238-.27-.449-.369-.626l-.07-.127-.111-.215a1 1 0 01.013-.92 19.45 19.45 0 014.45-5.544L.292 1.707a1 1 0 010-1.414zm2.085 11.314l-.235.396.131.223a18.521 18.521 0 002.33 3.09C6.777 17.632 9.255 19 11.985 19a9.07 9.07 0 004.387-1.214l-2.322-2.321A4 4 0 018.535 9.95L5.986 7.402a17.452 17.452 0 00-3.608 4.205zM12 3c3.38 0 6.339 1.632 8.855 4.316a20.49 20.49 0 012.25 2.891l.239.378c.147.238.27.449.369.626l.07.127.111.215a1 1 0 01-.012.918 19.5 19.5 0 01-2.277 3.363 1 1 0 01-1.53-1.288 17.5 17.5 0 001.518-2.102l.265-.446-.132-.224-.195-.316a18.512 18.512 0 00-2.136-2.774C17.224 6.367 14.745 5 11.998 5a8.122 8.122 0 00-1.87.214 1 1 0 11-.456-1.948A10.118 10.118 0 0112 3zm-2.013 9.57a2 2 0 002.57 1.402l-2.53-2.53c-.118.358-.136.749-.04 1.128z" fill="#C5C7CD"/></svg>